<?xml version="1.0" standalone="no"?>
<!DOCTYPE svg PUBLIC "-//W3C//DTD SVG 20010904//EN"
 "http://www.w3.org/TR/2001/REC-SVG-20010904/DTD/svg10.dtd">
<svg version="1.0" xmlns="http://www.w3.org/2000/svg"
 width="463.000000pt" height="441.000000pt" viewBox="0 0 463.000000 441.000000"
 preserveAspectRatio="xMidYMid meet">

<g transform="translate(0.000000,441.000000) scale(0.100000,-0.100000)"
fill="#000000" stroke="none">
<path d="M2143 3640 c-70 -14 -182 -57 -240 -92 -31 -18 -90 -65 -132 -105
l-76 -72 156 -1 157 0 13 31 c18 46 94 145 152 201 53 51 51 54 -30 38z"/>
<path d="M2416 3588 c34 -34 80 -91 103 -125 l41 -63 58 26 c31 14 77 33 101
42 l45 15 -30 24 c-73 59 -226 122 -334 138 l-45 7 61 -64z"/>
<path d="M2205 3526 c-38 -41 -80 -93 -93 -115 l-23 -41 201 0 200 0 -32 52
c-37 60 -149 178 -169 178 -8 0 -45 -33 -84 -74z"/>
<path d="M2877 3511 l-28 -6 28 -27 c23 -22 39 -27 88 -30 53 -3 61 -6 72 -28
9 -19 9 -36 1 -69 -9 -35 -8 -45 4 -57 19 -19 47 -8 59 23 14 38 11 126 -6
149 -32 46 -127 66 -218 45z"/>
<path d="M2785 3414 c-22 -6 -56 -19 -75 -28 -35 -15 -34 -15 63 -16 53 0 97
4 97 8 0 5 -10 18 -22 29 -21 18 -27 19 -63 7z"/>
<path d="M1630 3268 c-42 -69 -90 -224 -90 -290 l0 -38 178 2 177 3 2 30 c9
103 38 235 68 308 7 16 -4 17 -154 17 l-161 0 -20 -32z"/>
<path d="M2036 3260 c-36 -91 -67 -230 -51 -230 3 0 42 29 87 64 46 35 129 94
186 130 56 37 102 69 102 72 0 2 -69 4 -154 4 l-154 0 -16 -40z"/>
<path d="M2434 3247 c-130 -77 -165 -101 -308 -207 l-129 -95 303 -3 c167 -1
305 0 308 2 15 16 -47 299 -76 343 -6 10 -32 -1 -98 -40z"/>
<path d="M2610 3297 c0 -2 9 -30 20 -61 24 -70 50 -204 50 -257 l0 -39 180 0
180 0 0 26 c0 51 -42 200 -74 264 l-32 65 -162 3 c-89 1 -162 1 -162 -1z"/>
<path d="M1540 2828 c0 -35 26 -152 38 -174 5 -9 38 20 110 97 l104 109 -126
0 -126 0 0 -32z"/>
<path d="M1974 2792 c7 -74 35 -187 59 -244 l16 -38 240 0 241 0 16 38 c19 47
51 179 60 255 l6 57 -322 0 -323 0 7 -68z"/>
<path d="M2680 2821 c0 -50 -23 -168 -48 -248 l-20 -63 163 0 162 0 35 78 c35
76 68 196 68 246 l0 26 -180 0 -180 0 0 -39z"/>
<path d="M1826 2790 c-37 -36 -99 -102 -137 -147 -65 -76 -69 -83 -58 -107
l12 -26 164 0 163 0 -13 33 c-21 50 -48 167 -55 243 l-7 69 -69 -65z"/>
<path d="M1506 2516 c-39 -67 -56 -121 -56 -181 0 -48 3 -56 35 -83 61 -54
180 -55 180 -2 0 23 -5 25 -60 31 -100 11 -114 50 -57 166 l25 51 -20 32 -20
32 -27 -46z"/>
<path d="M1771 2357 c112 -106 265 -182 409 -202 l45 -6 -37 31 c-45 38 -148
172 -167 218 l-13 32 -157 0 -156 -1 76 -72z"/>
<path d="M2096 2418 c44 -76 140 -190 176 -209 32 -17 125 72 201 194 l17 27
-200 0 c-158 0 -200 -3 -194 -12z"/>
<path d="M2540 2368 c-19 -34 -69 -97 -110 -141 l-74 -80 44 8 c109 18 228 66
320 128 52 36 150 126 150 138 0 5 -66 9 -147 9 l-148 -1 -35 -61z"/>
<path d="M1270 2190 c0 -29 2 -30 45 -30 43 0 45 1 45 30 0 29 -2 30 -45 30
-43 0 -45 -1 -45 -30z"/>
<path d="M3200 2190 c0 -29 2 -30 45 -30 43 0 45 1 45 30 0 29 -2 30 -45 30
-43 0 -45 -1 -45 -30z"/>
<path d="M319 1974 c-37 -45 -98 -44 1961 -44 2059 0 1998 -1 1961 44 -12 15
-184 16 -1961 16 -1777 0 -1949 -1 -1961 -16z"/>
<path d="M1030 1753 c-25 -8 -58 -24 -73 -35 -26 -19 -27 -21 -12 -38 16 -17
19 -17 72 11 76 40 167 41 212 3 26 -21 31 -33 31 -68 0 -23 -7 -52 -16 -64
-8 -12 -80 -72 -160 -133 -128 -98 -144 -114 -144 -140 l0 -29 220 0 220 0 0
25 0 24 -147 3 -148 3 90 69 c169 130 195 162 195 244 0 60 -25 96 -84 123
-52 24 -191 25 -256 2z"/>
<path d="M417 1528 c52 -128 97 -241 100 -250 5 -15 18 -18 92 -18 l87 0 86
213 c48 116 94 229 102 250 l16 37 -53 0 -53 0 -89 -220 c-49 -121 -92 -220
-95 -220 -3 0 -45 99 -94 220 l-89 220 -53 0 -52 0 95 -232z"/>
<path d="M2730 1510 l0 -250 55 0 55 0 0 110 0 110 145 0 145 0 0 -110 0 -110
50 0 50 0 0 250 0 250 -50 0 -50 0 0 -115 0 -115 -145 0 -145 0 0 115 0 115
-55 0 -55 0 0 -250z"/>
<path d="M3830 1510 l0 -250 113 0 c144 0 202 16 250 69 57 63 61 147 12 222
-34 52 -84 73 -187 77 l-88 4 0 64 0 64 -50 0 -50 0 0 -250z m251 60 c47 -25
66 -148 34 -211 -20 -37 -50 -49 -126 -49 l-59 0 0 135 0 135 66 0 c36 0 74
-5 85 -10z"/>
<path d="M1895 1639 c-22 -5 -52 -14 -67 -20 -24 -10 -25 -14 -16 -34 10 -23
12 -23 38 -10 91 47 190 13 190 -64 0 -20 -6 -21 -86 -21 -145 0 -192 -24
-201 -103 -4 -36 -1 -48 22 -75 36 -43 77 -52 233 -52 l132 0 0 133 c0 106 -4
139 -18 167 -31 63 -138 100 -227 79z m145 -259 l0 -70 -68 0 c-83 0 -112 17
-112 63 0 18 4 38 9 45 11 18 57 30 119 31 l52 1 0 -70z"/>
<path d="M1530 1608 c-68 -35 -80 -67 -80 -220 l0 -128 50 0 50 0 0 129 c0
123 1 131 24 158 21 24 33 29 93 33 61 4 68 7 71 28 3 21 1 22 -80 22 -67 0
-93 -5 -128 -22z"/>
<path d="M2240 1505 c0 -93 4 -134 15 -155 24 -46 81 -69 185 -77 86 -6 90 -7
90 -29 0 -53 -76 -89 -152 -73 -23 6 -49 15 -56 22 -11 9 -17 7 -28 -8 -20
-27 -18 -31 29 -49 65 -25 173 -21 228 7 73 38 79 60 79 290 l0 197 -50 0 -50
0 0 -156 0 -157 -70 5 c-56 4 -76 10 -95 28 -24 23 -25 29 -25 152 l0 128 -50
0 -50 0 0 -125z"/>
<path d="M3340 1490 l0 -139 30 -34 c39 -45 89 -57 239 -57 l121 0 0 185 0
185 -50 0 -50 0 0 -160 0 -160 -70 0 c-62 0 -74 3 -95 25 -24 23 -25 29 -25
160 l0 135 -50 0 -50 0 0 -140z"/>
<path d="M1070 855 c0 -63 4 -105 10 -105 6 0 10 42 10 105 0 63 -4 105 -10
105 -6 0 -10 -42 -10 -105z"/>
<path d="M2040 855 c0 -63 4 -105 10 -105 6 0 10 20 10 45 0 45 0 45 35 45 19
0 35 5 35 10 0 6 -16 10 -35 10 -34 0 -35 1 -35 40 l0 40 40 0 c22 0 40 5 40
10 0 6 -22 10 -50 10 l-50 0 0 -105z"/>
<path d="M2480 855 l0 -105 55 0 c65 0 74 17 13 22 -42 3 -43 4 -43 38 0 33 2
35 38 38 50 4 47 22 -4 22 -39 0 -40 1 -37 33 3 30 6 32 46 35 61 5 52 22 -13
22 l-55 0 0 -105z"/>
<path d="M1290 920 c0 -11 -6 -20 -12 -20 -10 0 -10 -2 -1 -8 7 -4 13 -36 15
-72 3 -59 5 -65 26 -68 25 -4 30 13 7 22 -22 8 -21 104 1 113 15 5 15 7 0 15
-9 5 -16 16 -16 23 0 8 -4 15 -10 15 -5 0 -10 -9 -10 -20z"/>
<path d="M1890 925 c0 -9 -7 -18 -16 -22 -15 -5 -15 -7 0 -15 12 -7 16 -24 16
-69 0 -44 4 -61 15 -66 9 -3 19 -2 23 2 4 4 1 10 -5 12 -9 3 -13 25 -13 63 0
37 5 60 13 63 10 4 10 6 0 6 -7 1 -13 10 -13 21 0 11 -4 20 -10 20 -5 0 -10
-7 -10 -15z"/>
<path d="M1181 901 c-8 -5 -20 -7 -28 -4 -10 4 -13 -11 -13 -71 0 -44 4 -76
10 -76 6 0 10 27 10 60 0 47 4 61 18 69 29 16 42 -6 42 -71 0 -32 4 -58 10
-58 17 0 12 126 -6 144 -18 18 -24 19 -43 7z"/>
<path d="M1385 885 c-57 -57 -9 -154 64 -130 34 10 24 22 -16 21 -32 -1 -38 2
-41 22 -3 20 1 22 37 22 39 0 41 2 41 29 0 20 -8 35 -22 45 -30 21 -35 20 -63
-9z m53 -7 c21 -21 13 -38 -18 -38 -18 0 -30 5 -30 13 0 13 19 37 30 37 3 0
11 -5 18 -12z"/>
<path d="M1545 900 c-3 -5 -12 -7 -20 -3 -12 4 -15 -8 -15 -71 0 -44 4 -76 10
-76 6 0 10 27 10 61 0 52 3 62 20 66 11 3 20 12 20 19 0 16 -16 19 -25 4z"/>
<path d="M1641 901 c-8 -5 -20 -7 -28 -4 -10 4 -13 -11 -13 -71 0 -91 18 -102
22 -14 2 52 6 63 22 66 26 5 36 -15 36 -75 0 -29 5 -53 10 -53 17 0 12 126 -6
144 -18 18 -24 19 -43 7z"/>
<path d="M1763 895 c-27 -19 -37 -59 -23 -101 12 -36 42 -51 79 -39 33 10 24
25 -10 18 -21 -4 -34 -1 -40 8 -18 28 -10 39 31 39 38 0 40 2 40 29 0 20 -8
35 -22 45 -27 20 -29 20 -55 1z m45 -17 c21 -21 13 -38 -18 -38 -18 0 -30 5
-30 13 0 13 19 37 30 37 3 0 11 -5 18 -12z"/>
<path d="M2199 896 c-19 -9 -25 -21 -27 -58 -4 -61 10 -88 47 -88 38 0 61 28
61 76 0 63 -35 93 -81 70z m51 -26 c15 -29 9 -81 -12 -93 -23 -15 -48 8 -48
45 0 60 38 90 60 48z"/>
<path d="M2361 901 c-8 -5 -20 -7 -28 -4 -10 4 -13 -11 -13 -71 0 -44 4 -76
10 -76 6 0 10 27 10 61 0 52 3 62 20 66 11 3 20 12 20 19 0 16 -1 16 -19 5z"/>
<path d="M2780 902 c-43 -13 -57 -104 -21 -136 21 -19 72 -18 79 1 2 9 -5 11
-26 7 -24 -5 -32 -2 -41 14 -16 31 -15 32 34 32 48 0 53 7 36 53 -10 25 -35
37 -61 29z m38 -40 c3 -19 -1 -22 -27 -22 -34 0 -36 2 -20 31 13 26 43 20 47
-9z"/>
<path d="M2921 901 c-8 -5 -20 -7 -28 -4 -10 4 -13 -11 -13 -71 0 -44 4 -76
10 -76 6 0 10 22 10 49 0 59 7 81 26 81 8 0 14 7 14 15 0 17 0 18 -19 6z"/>
<path d="M3130 903 c-40 -14 -54 -88 -24 -131 15 -22 49 -29 70 -14 40 26 41
109 1 137 -23 16 -24 16 -47 8z m39 -27 c7 -8 11 -34 9 -58 -2 -33 -7 -44 -22
-47 -37 -7 -59 55 -36 100 13 23 33 25 49 5z"/>
<path d="M3273 902 l-33 -3 0 -75 c0 -59 3 -74 15 -74 12 0 15 14 15 64 0 63
8 79 38 69 8 -3 12 -26 12 -69 0 -36 4 -64 10 -64 6 0 10 30 10 70 0 78 -9 88
-67 82z"/>
<path d="M3420 902 c-40 -12 -54 -87 -24 -130 18 -26 65 -30 85 -6 11 14 9 15
-23 9 -30 -6 -38 -4 -47 13 -16 31 -15 32 34 32 40 0 45 2 45 23 0 40 -36 70
-70 59z m40 -31 c15 -28 13 -31 -20 -31 -22 0 -30 5 -30 18 0 36 33 44 50 13z"/>
<path d="M2613 884 c25 -88 42 -134 49 -134 10 0 52 139 44 148 -10 10 -24
-17 -32 -61 -7 -45 -15 -41 -29 15 -6 23 -17 44 -24 46 -9 3 -11 -2 -8 -14z"/>
<path d="M2981 833 c24 -84 24 -109 2 -122 -10 -5 -15 -13 -11 -16 18 -19 39
11 63 92 14 48 28 94 30 101 2 6 -2 12 -9 12 -9 0 -19 -21 -27 -52 l-13 -53
-14 53 c-8 28 -21 52 -28 52 -10 0 -8 -16 7 -67z"/>
</g>
</svg>
