<?xml version="1.0" standalone="no"?>
<!DOCTYPE svg PUBLIC "-//W3C//DTD SVG 20010904//EN"
 "http://www.w3.org/TR/2001/REC-SVG-20010904/DTD/svg10.dtd">
<svg version="1.0" xmlns="http://www.w3.org/2000/svg"
 width="500.000000pt" height="500.000000pt" viewBox="0 0 500.000000 500.000000"
 preserveAspectRatio="xMidYMid meet">

<g transform="translate(0.000000,500.000000) scale(0.100000,-0.100000)"
fill="#000000" stroke="none">
<path d="M0 2500 l0 -2500 2500 0 2500 0 0 2500 0 2500 -2500 0 -2500 0 0
-2500z m2542 2039 c20 -16 50 -32 67 -35 30 -6 31 -8 31 -59 0 -42 -5 -56 -25
-75 -23 -22 -35 -24 -152 -26 -259 -6 -409 -50 -655 -190 -326 -186 -334 -192
-551 -403 -185 -180 -290 -328 -356 -501 -39 -102 -47 -144 -81 -457 -26 -237
-33 -279 -55 -323 -34 -66 -32 -129 10 -362 4 -24 1 -28 -21 -28 -32 0 -42
-26 -23 -59 11 -19 22 -25 41 -23 24 2 29 -4 57 -75 50 -123 74 -175 98 -215
33 -53 236 -261 489 -499 l221 -208 38 9 c20 5 42 13 48 19 6 6 15 11 19 11
16 0 8 -30 -14 -52 -21 -21 -21 -21 -2 -36 32 -25 137 -70 200 -85 32 -9 129
-23 214 -32 85 -9 216 -29 290 -45 128 -27 139 -28 195 -14 33 7 92 16 130 20
62 6 76 11 108 40 20 19 37 43 37 54 0 12 7 20 16 20 11 0 15 6 11 20 -7 28 8
25 32 -6 20 -25 22 -26 39 -10 10 9 24 16 30 16 7 0 12 10 12 21 0 18 2 19 15
9 13 -11 19 -9 36 8 27 29 79 30 79 2 0 -30 28 -36 54 -11 28 26 37 26 59 1 9
-11 23 -20 30 -20 36 0 585 385 781 547 16 13 35 22 42 19 7 -3 18 2 22 11 5
9 16 14 24 10 19 -7 29 0 58 43 30 44 87 106 123 132 l27 20 -21 -59 c-67
-179 -182 -382 -305 -537 -49 -62 -83 -115 -87 -136 -10 -49 -33 -70 -78 -70
-52 0 -89 -16 -89 -38 0 -15 -6 -18 -31 -14 -37 6 -109 -16 -109 -33 0 -7 7
-19 17 -26 18 -16 43 -70 43 -96 0 -13 -10 -7 -40 22 l-39 38 -101 -100 c-95
-95 -100 -102 -100 -142 l0 -41 -41 0 c-61 0 -79 -14 -79 -60 0 -21 -5 -42
-10 -45 -6 -4 -28 12 -49 35 l-39 43 -61 -11 c-80 -14 -115 -32 -119 -60 -5
-32 -41 -28 -128 14 -67 34 -79 36 -138 32 -39 -4 -85 0 -118 8 -109 29 -380
27 -545 -2 -31 -6 -33 -5 -33 24 0 25 -3 29 -23 25 -16 -3 -52 13 -113 50
-165 100 -232 130 -309 137 -76 7 -137 31 -202 81 -40 30 -49 32 -150 39 -122
7 -164 23 -224 87 -47 48 -82 119 -104 208 -21 87 -29 101 -63 119 -21 11 -32
29 -46 73 -10 32 -64 162 -118 288 -177 407 -168 381 -168 467 0 61 3 76 13
72 8 -3 19 2 26 10 28 34 -44 283 -125 434 l-45 84 26 166 c45 283 85 414 156
519 18 26 97 111 175 188 129 128 143 146 165 205 22 60 37 78 179 221 85 85
179 174 208 197 l54 42 96 0 97 0 24 46 c44 82 140 141 213 130 48 -8 67 2
140 70 76 72 102 71 90 -4 l-5 -33 62 40 c53 34 106 57 321 140 32 12 56 5
102 -30z m908 -133 c275 -90 477 -238 607 -446 37 -58 99 -157 138 -220 39
-63 107 -171 150 -240 l79 -125 18 -135 c10 -74 21 -199 24 -277 7 -145 14
-163 44 -108 15 29 46 44 36 19 -20 -52 -48 -181 -57 -264 -6 -52 -13 -106
-16 -120 -12 -50 -21 62 -12 150 5 47 9 88 9 92 0 4 -12 6 -27 5 -24 -2 -28 2
-33 33 -4 24 -22 51 -56 85 -28 28 -69 82 -92 120 -41 69 -41 71 -35 146 8
103 -6 140 -70 191 -29 22 -58 50 -66 61 -28 40 -71 181 -71 235 0 28 -1 52
-3 52 -2 0 -22 -9 -45 -20 -22 -11 -49 -20 -60 -20 -19 0 -73 36 -282 186
-153 111 -311 216 -408 274 -59 35 -89 45 -156 55 -98 15 -176 48 -228 97 -32
29 -38 42 -38 76 0 24 7 49 19 63 17 21 28 24 101 26 70 1 85 5 102 23 20 21
27 22 182 18 142 -4 171 -8 246 -32z m-816 -812 c74 -19 165 -62 180 -86 25
-41 -41 -75 -87 -45 -103 66 -302 71 -438 10 -74 -32 -103 -29 -107 14 -3 30
0 34 58 63 116 59 268 76 394 44z m18 -196 c69 -32 86 -57 59 -89 l-19 -24
-58 25 c-82 35 -196 35 -273 1 -60 -27 -84 -22 -89 21 -4 29 23 50 102 79 75
28 202 22 278 -13z m-64 -168 c36 -16 42 -23 42 -49 0 -24 -5 -32 -25 -37 -14
-3 -39 -1 -55 6 -18 7 -46 10 -72 6 -83 -13 -100 -11 -112 7 -15 23 1 47 45
69 45 23 123 22 177 -2z m230 -182 c9 -9 12 -81 12 -264 0 -222 -2 -253 -17
-265 -11 -10 -55 -15 -145 -18 l-128 -3 0 -54 0 -53 88 -3 c79 -3 87 -5 87
-23 0 -19 -8 -20 -216 -23 -192 -2 -217 -1 -223 14 -11 28 4 34 90 34 l84 0 0
54 0 54 -126 4 c-177 4 -166 -16 -162 295 3 204 5 245 18 253 23 15 623 13
638 -2z m733 -879 c-2 -80 -2 -81 21 -73 83 29 158 -31 158 -125 0 -38 -5 -49
-44 -87 l-43 -44 -74 0 -74 0 3 177 c3 173 3 178 -19 196 -12 9 -20 19 -18 20
7 6 84 23 88 20 2 -1 3 -39 2 -84z m-2141 62 c0 -5 -7 -11 -15 -15 -8 -3 -15
-12 -15 -20 0 -20 91 -256 99 -256 8 0 101 233 101 253 0 9 -9 19 -20 22 -40
13 -18 25 45 25 36 0 65 -3 65 -6 0 -3 -10 -14 -22 -23 -11 -10 -55 -97 -97
-196 -42 -97 -80 -178 -86 -179 -5 0 -42 80 -82 179 -44 109 -81 185 -93 194
-35 23 -22 31 50 31 39 0 70 -4 70 -9z m1480 0 c0 -5 -9 -12 -19 -16 -21 -6
-36 -66 -29 -121 l3 -29 88 -3 87 -3 0 75 c0 66 -2 75 -20 81 -41 13 -18 25
50 25 73 0 84 -6 50 -28 -19 -11 -20 -23 -20 -178 0 -157 1 -166 20 -171 43
-11 17 -23 -50 -23 -67 0 -93 12 -50 23 18 5 20 14 20 86 l0 82 -87 -3 -88 -3
-3 -30 c-2 -16 -1 -53 3 -82 5 -43 10 -53 26 -53 10 0 19 -4 19 -10 0 -6 -32
-10 -75 -10 -41 0 -75 2 -75 5 0 3 11 10 25 15 l25 10 -2 167 c-3 163 -4 168
-25 178 -40 17 -25 25 52 25 41 0 75 -4 75 -9z m-1026 -11 c29 -11 56 -57 56
-96 0 -43 -37 -110 -97 -175 l-55 -59 66 0 c61 0 67 2 78 25 16 36 31 31 23
-7 -14 -72 -7 -68 -121 -68 -62 0 -104 4 -104 10 0 5 23 38 51 72 64 79 99
147 99 192 0 63 -52 86 -104 45 -15 -12 -29 -19 -32 -16 -10 10 17 48 49 67
36 22 54 24 91 10z m324 -147 c3 -21 -23 -39 -33 -23 -11 17 -54 11 -65 -9 -5
-11 -10 -54 -10 -96 0 -68 2 -77 20 -82 41 -11 18 -23 -45 -23 -63 0 -86 12
-45 23 18 5 20 14 20 95 0 82 -2 91 -22 105 -28 18 -24 23 30 32 36 6 42 4 42
-11 0 -15 2 -16 18 -2 36 32 85 27 90 -9z m197 15 c6 -5 12 -55 15 -111 5 -97
6 -102 28 -105 19 -3 21 -6 11 -18 -14 -17 -51 -18 -67 -2 -9 9 -18 9 -37 0
-59 -27 -115 -6 -115 43 0 31 32 61 84 78 37 12 41 17 44 49 6 64 -56 78 -77
17 -12 -35 -48 -38 -43 -4 9 54 117 91 157 53z m181 -3 c-19 -14 -19 -16 9
-85 15 -38 31 -70 34 -70 3 0 17 30 29 67 l24 67 -24 18 c-23 18 -23 18 35 18
59 0 70 -7 39 -27 -11 -7 -40 -69 -71 -156 -64 -175 -82 -207 -116 -207 -36 0
-33 33 4 47 22 8 32 21 41 49 10 36 8 47 -33 149 -30 75 -51 113 -66 120 -37
17 -23 25 47 25 61 -1 65 -2 48 -15z m689 -78 c0 -105 10 -127 56 -127 37 0
49 24 49 99 0 49 -4 64 -22 81 -26 24 -25 26 30 35 l42 7 0 -112 c0 -103 2
-112 20 -117 28 -7 16 -20 -26 -28 -25 -4 -39 -2 -45 6 -5 9 -15 8 -43 -5 -73
-34 -114 17 -115 141 -1 52 -5 65 -21 75 -27 17 -25 26 8 31 71 11 67 16 67
-86z m-845 -492 c0 -96 -3 -115 -15 -115 -12 0 -15 19 -15 108 0 60 3 112 7
115 18 19 23 -3 23 -108z m985 75 c-5 -8 -11 -8 -17 -2 -6 6 -7 16 -3 22 5 8
11 8 17 2 6 -6 7 -16 3 -22z m-355 -5 c0 -7 8 -19 18 -25 16 -10 16 -10 0 -20
-24 -14 -25 -92 -2 -115 12 -11 14 -20 6 -27 -7 -7 -17 -3 -31 11 -16 16 -21
33 -21 75 0 34 -5 56 -12 59 -9 4 -10 8 -2 14 6 4 13 16 17 26 8 21 27 23 27
2z m-1726 -91 l19 -59 16 60 c11 42 21 61 34 63 21 4 21 2 -16 -93 -13 -33
-29 -60 -37 -60 -7 0 -23 29 -37 69 -26 80 -28 89 -10 84 6 -3 21 -31 31 -64z
m321 49 c21 -21 21 -143 0 -143 -12 0 -15 13 -15 59 0 67 -15 90 -49 71 -18
-9 -21 -20 -21 -70 0 -47 -3 -60 -15 -60 -12 0 -15 13 -15 59 0 67 -15 90 -49
71 -18 -9 -21 -20 -21 -71 0 -44 -3 -60 -12 -57 -13 5 -24 118 -15 142 8 19
193 18 212 -1z m153 9 c14 -10 33 -68 24 -76 -3 -3 -27 -6 -54 -6 -50 0 -58
-8 -32 -34 18 -19 45 -21 62 -4 17 17 28 2 12 -17 -7 -8 -28 -15 -46 -15 -47
0 -74 29 -74 80 0 27 7 47 20 60 20 20 65 26 88 12z m166 -14 c15 -25 1 -32
-28 -13 -27 18 -46 13 -46 -11 0 -8 13 -17 31 -21 59 -11 74 -74 22 -94 -30
-11 -93 13 -93 35 0 20 24 21 40 1 16 -19 46 -19 54 0 4 12 -7 21 -39 35 -53
23 -64 43 -39 71 22 24 82 23 98 -3z m150 6 c20 -20 20 -34 1 -34 -8 0 -15 4
-15 9 0 13 -27 21 -45 15 -27 -11 -16 -29 28 -44 33 -12 43 -20 45 -42 6 -52
-64 -71 -111 -30 -12 10 -14 19 -7 26 6 6 16 4 29 -8 23 -21 54 -18 59 6 2 11
-10 20 -40 30 -32 11 -44 20 -46 38 -7 44 68 69 102 34z m165 -37 c8 -26 17
-47 21 -47 4 0 13 21 21 47 15 47 40 71 38 36 -1 -37 -44 -138 -59 -138 -15 0
-58 101 -59 138 -2 35 23 11 38 -36z m295 37 c9 -8 16 -29 16 -45 0 -28 -1
-29 -50 -29 -52 0 -60 -8 -34 -34 18 -18 32 -20 54 -7 20 13 34 2 19 -15 -19
-23 -85 -18 -103 8 -23 32 -20 94 4 118 24 24 72 26 94 4z m154 4 c17 -17 15
-38 -3 -38 -8 0 -15 4 -15 9 0 17 -34 22 -49 7 -13 -14 -9 -17 32 -35 48 -21
60 -45 38 -81 -20 -30 -111 -9 -111 26 0 19 18 18 37 -1 19 -19 47 -16 51 6 2
10 -11 21 -38 32 -48 18 -59 40 -35 67 20 22 74 27 93 8z m154 -5 c10 -9 18
-20 18 -25 0 -13 -22 -9 -40 7 -19 17 -50 10 -50 -10 0 -7 12 -16 28 -20 80
-20 82 -98 2 -98 -28 0 -70 27 -70 45 0 13 27 9 40 -7 15 -17 46 -20 56 -4 9
14 -10 32 -49 45 -35 12 -47 44 -27 70 17 19 69 18 92 -3z m308 2 c0 -7 -10
-15 -22 -17 -21 -3 -23 -9 -26 -65 -2 -47 -7 -63 -17 -63 -12 0 -15 16 -15 73
0 41 2 76 5 79 3 2 21 5 40 6 24 1 35 -3 35 -13z m135 -10 c31 -30 32 -73 4
-109 -43 -55 -129 -18 -129 56 0 36 40 78 75 78 14 0 37 -11 50 -25z m83 -82
l-3 -108 -27 -3 c-30 -4 -38 12 -13 22 12 4 15 25 15 101 0 79 3 95 15 95 13
0 15 -16 13 -107z m156 85 c10 -14 16 -44 16 -81 0 -55 -1 -59 -21 -54 -12 3
-31 2 -44 -3 -30 -11 -65 13 -65 45 0 27 34 55 67 55 26 0 31 25 8 34 -18 6
-45 -2 -45 -15 0 -5 -7 -9 -15 -9 -19 0 -19 9 2 32 23 26 78 24 97 -4z m163
11 c20 -17 18 -149 -2 -149 -12 0 -15 14 -15 65 0 65 -3 71 -40 65 -23 -3 -30
-20 -30 -78 0 -38 -4 -52 -12 -50 -13 4 -24 118 -15 142 6 15 97 19 114 5z
m-1507 -59 c0 -5 -16 -10 -35 -10 -19 0 -35 5 -35 10 0 6 16 10 35 10 19 0 35
-4 35 -10z m770 0 c0 -5 -16 -10 -35 -10 -19 0 -35 5 -35 10 0 6 16 10 35 10
19 0 35 -4 35 -10z"/>
<path d="M710 1877 c0 -7 9 -22 19 -31 19 -18 20 -17 12 10 -8 29 -31 46 -31
21z"/>
<path d="M784 1878 c2 -7 10 -32 16 -55 10 -35 50 -91 50 -69 0 13 -59 136
-65 136 -4 0 -4 -6 -1 -12z"/>
<path d="M2220 2785 l0 -225 278 2 277 3 0 220 0 220 -277 3 -278 2 0 -225z
m345 166 c104 -47 143 -172 81 -263 -35 -52 -70 -71 -135 -76 -51 -4 -67 -1
-105 22 -153 89 -85 330 94 335 14 0 43 -8 65 -18z"/>
<path d="M2465 2920 c-3 -5 -2 -10 4 -10 5 0 13 5 16 10 3 6 2 10 -4 10 -5 0
-13 -4 -16 -10z"/>
<path d="M2510 2920 c0 -5 5 -10 10 -10 6 0 10 5 10 10 0 6 -4 10 -10 10 -5 0
-10 -4 -10 -10z"/>
<path d="M2360 2861 c-18 -35 -12 -61 14 -61 18 0 25 7 30 31 9 46 8 49 -14
49 -10 0 -24 -9 -30 -19z"/>
<path d="M2437 2873 c-4 -3 -7 -21 -7 -40 0 -30 3 -33 30 -33 28 0 30 2 30 40
0 35 -3 40 -23 40 -13 0 -27 -3 -30 -7z"/>
<path d="M2510 2840 c0 -38 1 -40 31 -40 28 0 31 3 25 23 -3 12 -6 30 -6 40 0
11 -8 17 -25 17 -22 0 -25 -4 -25 -40z"/>
<path d="M2584 2858 c3 -13 6 -31 6 -40 0 -13 8 -18 30 -18 33 0 37 13 18 55
-15 34 -63 37 -54 3z"/>
<path d="M2346 2753 c14 -42 29 -63 46 -63 19 0 22 18 12 58 -5 16 -14 22 -35
22 -22 0 -27 -4 -23 -17z"/>
<path d="M2430 2746 c0 -40 11 -56 36 -56 21 0 24 4 24 40 0 38 -2 40 -30 40
-25 0 -30 -4 -30 -24z"/>
<path d="M2510 2730 c0 -33 3 -40 19 -40 23 0 26 4 36 48 6 31 5 32 -24 32
-29 0 -31 -2 -31 -40z"/>
<path d="M2590 2753 c0 -10 -3 -28 -6 -40 -5 -19 -2 -23 14 -23 23 0 52 35 52
62 0 13 -8 18 -30 18 -22 0 -30 -5 -30 -17z"/>
<path d="M2465 2650 c3 -5 10 -10 16 -10 5 0 9 5 9 10 0 6 -7 10 -16 10 -8 0
-12 -4 -9 -10z"/>
<path d="M2510 2650 c0 -5 5 -10 10 -10 6 0 10 5 10 10 0 6 -4 10 -10 10 -5 0
-10 -4 -10 -10z"/>
<path d="M3556 2054 c-9 -23 -7 -157 3 -172 11 -18 69 -18 87 0 39 39 34 143
-9 173 -28 20 -73 19 -81 -1z"/>
<path d="M2310 1942 c-41 -20 -50 -46 -21 -62 33 -17 61 3 61 45 0 19 -1 35
-2 35 -2 0 -19 -8 -38 -18z"/>
<path d="M1726 1524 c-22 -22 -21 -24 19 -24 37 0 49 22 19 34 -21 8 -20 8
-38 -10z"/>
<path d="M2496 1524 c-22 -22 -21 -24 19 -24 37 0 49 22 19 34 -21 8 -20 8
-38 -10z"/>
<path d="M3248 1529 c-24 -14 -31 -57 -13 -85 20 -31 40 -30 61 1 29 44 -7
107 -48 84z"/>
<path d="M3488 1469 c-21 -12 -24 -35 -5 -42 20 -7 47 12 47 33 0 22 -15 25
-42 9z"/>
</g>
</svg>
